<svg data-v-fde0c5aa="" xmlns="http://www.w3.org/2000/svg" viewBox="0 0 300 300" class="iconLeftSlogan"><!----><defs data-v-fde0c5aa=""><!----></defs><rect data-v-fde0c5aa="" fill="#0C568D" x="0" y="0" width="300px" height="300px" class="logo-background-square"></rect><defs data-v-fde0c5aa=""><!----></defs><g data-v-fde0c5aa="" id="8fb45a7c-8bb8-4a7e-b9e9-138285e2e512" fill="#ffffff" transform="matrix(2.4576023385152572,0,0,2.4576023385152572,105.78545735973401,118.40996324520574)"><path d="M2.91 13.93C3.21 13.93 3.49 13.86 3.77 13.75C4.03 13.64 4.26 13.48 4.44 13.29L4.26 12.98C4.21 12.94 4.19 12.92 4.14 12.92C4.12 12.92 4.06 12.94 4.00 12.99C3.95 13.05 3.88 13.09 3.79 13.15C3.71 13.20 3.60 13.26 3.47 13.31C3.35 13.37 3.22 13.38 3.05 13.38C2.91 13.38 2.77 13.36 2.66 13.31C2.55 13.27 2.45 13.20 2.37 13.12C2.28 13.03 2.21 12.92 2.16 12.78C2.10 12.64 2.09 12.49 2.09 12.29L2.09 7.57L4.28 7.57L4.28 7.07L2.09 7.07L2.09 4.41L1.76 4.41C1.71 4.41 1.68 4.44 1.65 4.47C1.62 4.49 1.60 4.54 1.60 4.58L1.43 7.07L0.24 7.15L0.24 7.41C0.24 7.46 0.25 7.49 0.28 7.52C0.31 7.55 0.36 7.57 0.42 7.57L1.41 7.57L1.41 12.33C1.41 12.88 1.54 13.27 1.81 13.54C2.07 13.80 2.44 13.93 2.91 13.93ZM6.58 4.89C6.64 4.94 6.71 4.98 6.78 5.01C6.85 5.04 6.93 5.07 7.01 5.07C7.10 5.07 7.18 5.04 7.25 5.01C7.32 4.98 7.39 4.94 7.45 4.89C7.50 4.83 7.56 4.76 7.59 4.69C7.62 4.62 7.64 4.54 7.64 4.45C7.64 4.37 7.62 4.30 7.59 4.21C7.56 4.14 7.50 4.07 7.45 4.02C7.39 3.96 7.32 3.91 7.25 3.88C7.18 3.85 7.10 3.84 7.01 3.84C6.93 3.84 6.85 3.85 6.78 3.88C6.71 3.91 6.64 3.96 6.58 4.02C6.52 4.07 6.48 4.14 6.45 4.21C6.43 4.28 6.40 4.37 6.40 4.45C6.40 4.54 6.43 4.62 6.45 4.69C6.48 4.76 6.52 4.83 6.58 4.89ZM8.08 13.29L8.01 13.29L7.90 13.29C7.85 13.29 7.78 13.27 7.69 13.27C7.59 13.27 7.48 13.26 7.35 13.26L7.35 6.85L6.68 6.85L5.67 6.85L5.67 7.13C5.67 7.28 5.77 7.36 5.95 7.38L6.02 7.38C6.05 7.38 6.09 7.39 6.13 7.39L6.34 7.39C6.44 7.39 6.55 7.41 6.68 7.41L6.68 13.26C6.52 13.26 6.38 13.29 6.27 13.29L6.03 13.29L5.95 13.29C5.77 13.30 5.67 13.38 5.67 13.54L5.67 13.82L6.68 13.82L7.35 13.82L8.36 13.82L8.36 13.54C8.36 13.38 8.26 13.30 8.08 13.29ZM20.43 13.29L20.34 13.29L20.24 13.29C20.20 13.29 20.13 13.27 20.03 13.27C19.94 13.27 19.81 13.26 19.68 13.26L19.68 9.37C19.68 8.95 19.63 8.57 19.53 8.25C19.43 7.92 19.29 7.64 19.10 7.42C18.90 7.20 18.66 7.03 18.38 6.92C18.10 6.80 17.81 6.75 17.46 6.75C17.22 6.75 16.97 6.78 16.74 6.85C16.52 6.92 16.31 7.01 16.11 7.15C15.92 7.29 15.74 7.46 15.58 7.67C15.43 7.88 15.32 8.13 15.23 8.43C15.12 7.90 14.92 7.48 14.62 7.18C14.31 6.89 13.90 6.75 13.40 6.75C13.17 6.75 12.96 6.76 12.77 6.83C12.57 6.89 12.39 6.99 12.21 7.10C12.04 7.21 11.87 7.36 11.72 7.52C11.56 7.67 11.42 7.84 11.28 8.04L11.23 7.03C11.21 6.92 11.14 6.86 11.02 6.86L10.65 6.86L9.65 6.86L9.65 7.13C9.65 7.28 9.73 7.36 9.91 7.38L10.00 7.38C10.02 7.38 10.05 7.39 10.09 7.39L10.30 7.39C10.40 7.39 10.53 7.41 10.65 7.41L10.65 13.26C10.49 13.26 10.35 13.29 10.23 13.29L10.01 13.29L9.91 13.29C9.73 13.30 9.65 13.38 9.65 13.54L9.65 13.82L10.65 13.82L11.31 13.82L12.32 13.82L12.32 13.54C12.32 13.38 12.24 13.30 12.05 13.29L11.97 13.29L11.87 13.29C11.83 13.29 11.76 13.27 11.66 13.27C11.56 13.27 11.44 13.26 11.31 13.26L11.31 8.55C11.56 8.15 11.86 7.84 12.18 7.62C12.50 7.39 12.85 7.28 13.23 7.28C13.75 7.28 14.14 7.45 14.41 7.81C14.67 8.18 14.81 8.69 14.81 9.37L14.81 13.82L15.48 13.82L15.48 13.82L16.49 13.82L16.49 13.54C16.49 13.38 16.39 13.30 16.21 13.29L16.14 13.29L16.03 13.29C15.99 13.29 15.92 13.27 15.82 13.27C15.72 13.27 15.61 13.26 15.48 13.26L15.48 9.37C15.48 9.02 15.53 8.72 15.62 8.46C15.72 8.19 15.86 7.97 16.03 7.80C16.20 7.63 16.39 7.49 16.62 7.41C16.84 7.32 17.08 7.28 17.32 7.28C17.86 7.28 18.28 7.46 18.58 7.81C18.87 8.18 19.03 8.68 19.03 9.37L19.03 13.82L19.68 13.82L20.69 13.82L20.69 13.54C20.69 13.38 20.61 13.30 20.43 13.29ZM24.96 6.73C24.47 6.73 24.02 6.83 23.63 7.00C23.24 7.17 22.92 7.41 22.65 7.71C22.39 8.02 22.18 8.39 22.04 8.81C21.90 9.23 21.81 9.69 21.81 10.19C21.81 10.78 21.90 11.31 22.05 11.77C22.20 12.24 22.41 12.61 22.69 12.94C22.97 13.26 23.31 13.50 23.70 13.66C24.09 13.83 24.53 13.90 25.00 13.90C25.27 13.90 25.54 13.89 25.79 13.83C26.04 13.78 26.29 13.71 26.52 13.62C26.74 13.54 26.95 13.44 27.13 13.31C27.31 13.19 27.47 13.06 27.58 12.92L27.40 12.70C27.37 12.66 27.31 12.63 27.26 12.63C27.22 12.63 27.13 12.66 27.03 12.74C26.94 12.82 26.80 12.91 26.61 13.01C26.45 13.10 26.22 13.17 25.97 13.26C25.72 13.34 25.41 13.38 25.06 13.38C24.67 13.38 24.32 13.31 24.00 13.17C23.67 13.03 23.41 12.84 23.18 12.57C22.96 12.31 22.79 11.97 22.67 11.58C22.54 11.19 22.48 10.71 22.48 10.19L22.48 10.07L27.51 10.07C27.58 10.07 27.62 10.05 27.65 10.01C27.68 9.97 27.71 9.90 27.71 9.80C27.71 9.31 27.64 8.88 27.50 8.50C27.36 8.12 27.17 7.78 26.92 7.53C26.68 7.28 26.39 7.08 26.05 6.94C25.72 6.80 25.35 6.73 24.96 6.73ZM24.98 7.24C25.30 7.24 25.58 7.29 25.84 7.41C26.11 7.52 26.33 7.67 26.52 7.88C26.70 8.09 26.85 8.33 26.95 8.62C27.05 8.92 27.10 9.25 27.10 9.63L22.51 9.63C22.55 9.27 22.64 8.93 22.76 8.64C22.89 8.34 23.06 8.09 23.27 7.88C23.48 7.67 23.73 7.52 24.01 7.41C24.29 7.29 24.61 7.24 24.98 7.24ZM33.96 12.70C33.94 12.66 33.88 12.63 33.82 12.63C33.77 12.63 33.71 12.66 33.63 12.74C33.54 12.82 33.42 12.91 33.28 13.01C33.14 13.10 32.94 13.17 32.72 13.26C32.49 13.34 32.20 13.38 31.86 13.38C31.50 13.38 31.16 13.31 30.87 13.17C30.58 13.03 30.32 12.85 30.11 12.59C29.90 12.33 29.74 12.01 29.62 11.63C29.51 11.26 29.46 10.82 29.46 10.33C29.46 9.86 29.51 9.44 29.62 9.06C29.74 8.68 29.90 8.36 30.11 8.09C30.32 7.83 30.59 7.62 30.90 7.48C31.21 7.34 31.56 7.27 31.96 7.27C32.31 7.27 32.70 7.35 33.15 7.50C33.17 7.69 33.17 7.87 33.18 8.04C33.19 8.20 33.21 8.33 33.22 8.43C33.24 8.53 33.24 8.58 33.24 8.60C33.25 8.82 33.35 8.93 33.54 8.93L33.88 8.93L33.88 7.18L33.52 7.07C33.28 7.00 32.98 6.92 32.66 6.85C32.34 6.78 32.09 6.75 31.92 6.75C31.42 6.75 30.98 6.82 30.59 7.00C30.20 7.18 29.86 7.42 29.60 7.74C29.33 8.06 29.13 8.44 28.99 8.88C28.85 9.31 28.77 9.80 28.77 10.33C28.77 10.89 28.84 11.40 28.99 11.84C29.13 12.29 29.34 12.66 29.61 12.96C29.88 13.27 30.20 13.51 30.56 13.66C30.93 13.83 31.32 13.92 31.77 13.92C32.03 13.92 32.28 13.89 32.52 13.83C32.76 13.78 32.98 13.72 33.19 13.64C33.40 13.55 33.57 13.44 33.74 13.31C33.91 13.19 34.03 13.06 34.15 12.92ZM42.57 13.29L42.49 13.29L42.39 13.29C42.35 13.29 42.28 13.27 42.18 13.27C42.08 13.27 41.96 13.26 41.83 13.26L41.83 9.37C41.83 8.96 41.79 8.60 41.69 8.27C41.59 7.95 41.45 7.67 41.26 7.45C41.06 7.22 40.82 7.06 40.53 6.93C40.24 6.80 39.90 6.75 39.52 6.75C39.00 6.75 38.54 6.86 38.12 7.10C37.72 7.34 37.35 7.66 37.03 8.05L37.03 3.64L36.36 3.64L35.35 3.64L35.35 3.91C35.35 4.06 35.45 4.14 35.63 4.16L35.70 4.16C35.73 4.16 35.77 4.17 35.81 4.17L36.02 4.17C36.12 4.17 36.23 4.19 36.36 4.19L36.36 13.26C36.20 13.26 36.06 13.29 35.95 13.29L35.71 13.29L35.63 13.29C35.45 13.30 35.35 13.38 35.35 13.54L35.35 13.82L36.36 13.82L37.03 13.82L38.04 13.82L38.04 13.54C38.04 13.38 37.94 13.30 37.76 13.29L37.69 13.29L37.58 13.29C37.53 13.29 37.46 13.27 37.37 13.27C37.27 13.27 37.16 13.26 37.03 13.26L37.03 8.60C37.34 8.19 37.69 7.87 38.08 7.63C38.47 7.39 38.89 7.28 39.35 7.28C39.97 7.28 40.43 7.46 40.73 7.83C41.02 8.20 41.17 8.71 41.17 9.37L41.17 13.82L41.83 13.82L42.84 13.82L42.84 13.54C42.84 13.38 42.76 13.30 42.57 13.29ZM49.70 13.29L49.60 13.29L49.38 13.29C49.28 13.29 49.17 13.27 49.06 13.27L49.06 9.28C49.06 8.89 49.01 8.55 48.92 8.23C48.82 7.91 48.68 7.64 48.50 7.42C48.31 7.20 48.08 7.03 47.80 6.92C47.52 6.79 47.19 6.73 46.82 6.73C46.31 6.73 45.86 6.83 45.46 7.01C45.05 7.20 44.67 7.48 44.31 7.84L44.42 8.05C44.46 8.13 44.53 8.18 44.63 8.18C44.70 8.18 44.80 8.12 44.90 8.02C45.00 7.92 45.14 7.84 45.30 7.73C45.47 7.62 45.65 7.52 45.89 7.42C46.13 7.32 46.41 7.28 46.75 7.28C47.29 7.28 47.71 7.45 47.99 7.80C48.27 8.15 48.40 8.64 48.40 9.28L48.40 10.01C47.61 10.02 46.94 10.09 46.38 10.21C45.82 10.32 45.36 10.47 45.00 10.65C44.63 10.84 44.38 11.06 44.21 11.31C44.04 11.56 43.96 11.83 43.96 12.12C43.96 12.45 44.02 12.73 44.11 12.95C44.23 13.17 44.37 13.36 44.53 13.50C44.70 13.64 44.91 13.75 45.14 13.82C45.36 13.89 45.58 13.93 45.82 13.93C46.10 13.93 46.37 13.90 46.61 13.85C46.84 13.79 47.05 13.71 47.26 13.61C47.47 13.51 47.67 13.38 47.87 13.23C48.05 13.08 48.23 12.91 48.43 12.73L48.52 13.62C48.55 13.75 48.65 13.82 48.79 13.82L48.80 13.82L49.06 13.82L49.98 13.82L49.98 13.54C49.98 13.38 49.88 13.30 49.70 13.29ZM48.40 12.26C48.23 12.43 48.08 12.60 47.91 12.74C47.74 12.88 47.56 13.01 47.36 13.12C47.17 13.23 46.96 13.30 46.73 13.36C46.51 13.41 46.26 13.44 45.99 13.44C45.81 13.44 45.63 13.43 45.46 13.37C45.29 13.31 45.15 13.24 45.02 13.13C44.90 13.02 44.79 12.88 44.72 12.71C44.63 12.54 44.60 12.35 44.60 12.11C44.60 11.86 44.67 11.63 44.83 11.44C44.98 11.24 45.21 11.09 45.51 10.95C45.82 10.81 46.21 10.70 46.69 10.61C47.17 10.53 47.74 10.47 48.40 10.46ZM52.19 4.89C52.25 4.94 52.32 4.98 52.39 5.01C52.46 5.04 52.54 5.07 52.63 5.07C52.71 5.07 52.79 5.04 52.86 5.01C52.93 4.98 53.00 4.94 53.06 4.89C53.12 4.83 53.17 4.76 53.20 4.69C53.23 4.62 53.26 4.54 53.26 4.45C53.26 4.37 53.23 4.30 53.20 4.21C53.17 4.14 53.12 4.07 53.06 4.02C53.00 3.96 52.93 3.91 52.86 3.88C52.79 3.85 52.71 3.84 52.63 3.84C52.54 3.84 52.46 3.85 52.39 3.88C52.32 3.91 52.25 3.96 52.19 4.02C52.14 4.07 52.09 4.14 52.07 4.21C52.04 4.28 52.01 4.37 52.01 4.45C52.01 4.54 52.04 4.62 52.07 4.69C52.09 4.76 52.14 4.83 52.19 4.89ZM53.69 13.29L53.62 13.29L53.51 13.29C53.47 13.29 53.40 13.27 53.30 13.27C53.20 13.27 53.09 13.26 52.96 13.26L52.96 6.85L52.29 6.85L51.28 6.85L51.28 7.13C51.28 7.28 51.38 7.36 51.56 7.38L51.63 7.38C51.66 7.38 51.70 7.39 51.74 7.39L51.95 7.39C52.05 7.39 52.16 7.41 52.29 7.41L52.29 13.26C52.14 13.26 52.00 13.29 51.88 13.29L51.65 13.29L51.56 13.29C51.38 13.30 51.28 13.38 51.28 13.54L51.28 13.82L52.29 13.82L52.96 13.82L53.97 13.82L53.97 13.54C53.97 13.38 53.87 13.30 53.69 13.29ZM62.47 13.29L62.40 13.29L62.29 13.29C62.24 13.29 62.17 13.27 62.08 13.27C61.98 13.27 61.87 13.26 61.74 13.26L61.74 9.37C61.74 8.96 61.68 8.60 61.59 8.27C61.49 7.95 61.35 7.67 61.15 7.45C60.96 7.22 60.72 7.06 60.42 6.93C60.13 6.80 59.79 6.75 59.42 6.75C58.90 6.75 58.42 6.87 58.00 7.11C57.58 7.36 57.22 7.67 56.90 8.08L56.84 7.03C56.83 6.92 56.76 6.86 56.63 6.86L56.27 6.86L55.26 6.86L55.26 7.13C55.26 7.28 55.34 7.36 55.52 7.38L55.61 7.38C55.64 7.38 55.66 7.39 55.71 7.39L55.92 7.39C56.01 7.39 56.14 7.41 56.27 7.41L56.27 13.26C56.10 13.26 55.96 13.29 55.85 13.29L55.62 13.29L55.52 13.29C55.34 13.30 55.26 13.38 55.26 13.54L55.26 13.82L56.27 13.82L56.92 13.82L57.93 13.82L57.93 13.54C57.93 13.38 57.85 13.30 57.67 13.29L57.58 13.29L57.48 13.29C57.44 13.29 57.37 13.27 57.27 13.27C57.18 13.27 57.05 13.26 56.92 13.26L56.92 8.60C57.23 8.19 57.58 7.87 57.97 7.63C58.37 7.39 58.79 7.28 59.25 7.28C59.86 7.28 60.33 7.46 60.62 7.83C60.91 8.20 61.07 8.71 61.07 9.37L61.07 13.82L61.74 13.82L62.75 13.82L62.75 13.54C62.75 13.38 62.65 13.30 62.47 13.29Z"></path></g><defs data-v-fde0c5aa=""><!----></defs><g data-v-fde0c5aa="" id="b6afecd3-7293-487c-b2d7-676306addbe7" stroke="none" fill="#06345E" transform="matrix(0.6134748798190223,0,0,0.6134748798190223,36.31915072108587,119.32594944010488)"><path d="M86 43.75c-3.525 0-6.435 2.25-6.921 6.25H60c0-3-.62-4.209-1.681-5.796l15.82-15.945c.576.231 1.201.304 1.86.304 2.762 0 5-2.27 5-5.031s-2.238-5.016-5-5.016-5 2.23-5 4.992c0 1.289.501 2.448 1.302 3.335L56.883 42.26A9.957 9.957 0 0 0 51 39.551V20.42c3.391-.486 6-3.394 6-6.92a7 7 0 1 0-14 0c0 3.526 2.609 6.434 6 6.92v19.13a9.948 9.948 0 0 0-5.592 2.443L28.489 27.075A4.98 4.98 0 0 0 30 23.5c0-2.762-2.238-5-5-5s-5 2.238-5 5a5 5 0 0 0 5 5c.619 0 1.206-.127 1.753-.333l15.292 15.542C40.767 45.388 40 47 40 50H19.92c-.486-4-3.395-6.25-6.92-6.25-3.866 0-7 3.009-7 6.875 0 3.867 3.134 7.188 7 7.188 3.526 0 6.434-2.813 6.92-5.813H40.2c.38 1 1.29 3.3 2.557 4.633L28.338 70.927c-.886-.801-2.049-1.364-3.338-1.364-2.762 0-5 2.207-5 4.969s2.238 4.984 5 4.984 5-2.246 5-5.008c0-.659-.135-1.289-.366-1.864l14.82-14.822A9.934 9.934 0 0 0 49 59.45v20.13c-3.391.486-6 3.396-6 6.921 0 3.867 3.134 7 7 7s7-3.133 7-7c0-3.525-2.609-6.435-6-6.921V59.45a9.94 9.94 0 0 0 5.042-1.994l15.291 15.291A4.957 4.957 0 0 0 71 74.5c0 2.762 2.238 5 5 5s5-2.238 5-5-2.238-5-5-5a4.98 4.98 0 0 0-3.574 1.511L57.507 56.342C58.635 55.059 59.446 53 59.799 52h19.28c.486 3 3.396 5.75 6.921 5.75a7 7 0 1 0 0-14z"></path></g><defs data-v-fde0c5aa=""><!----></defs><g data-v-fde0c5aa="" id="ed99d70b-a1c8-457c-a38f-0bdeae0b6fd9" fill="#ffffff" transform="matrix(0.33411203118271166,0,0,0.33411203118271166,106.30511841507878,161.82578949245664)"><path d="M4.48 2.45L0.21 12.60L0.70 12.60L1.97 9.52L6.99 9.52L8.26 12.60L8.75 12.60ZM4.48 3.50L6.79 9.07L2.17 9.07ZM28.42 2.80L28.42 12.60L30.52 12.60C32.65 12.60 33.71 11.69 33.71 9.87C33.71 9.19 33.48 8.62 33.01 8.17C32.53 7.72 31.97 7.41 31.30 7.25C32.54 7.02 33.15 6.30 33.15 5.11C33.15 4.40 32.90 3.84 32.39 3.42C31.88 3.01 31.16 2.80 30.24 2.80ZM28.84 7.08L28.84 3.21L30.24 3.21C31.01 3.21 31.62 3.37 32.07 3.71C32.51 4.05 32.73 4.51 32.73 5.11C32.73 5.60 32.60 5.99 32.33 6.31C32.06 6.62 31.75 6.83 31.39 6.93C31.05 7.03 30.66 7.08 30.24 7.08ZM28.84 7.48L30.52 7.48C30.92 7.48 31.32 7.56 31.72 7.72C32.13 7.88 32.48 8.16 32.79 8.54C33.10 8.92 33.25 9.37 33.25 9.87C33.25 11.42 32.34 12.19 30.52 12.19L28.84 12.19ZM42.74 2.80L42.74 12.60L43.16 12.60L43.16 2.80ZM51.63 3.21L54.15 3.21L54.15 12.60L54.57 12.60L54.57 3.21L57.09 3.21L57.09 2.80L51.63 2.80ZM64.97 7.70C64.97 6.33 65.35 5.22 66.11 4.38C66.88 3.53 67.88 3.11 69.13 3.11C70.33 3.11 71.38 3.54 72.28 4.41L72.28 3.81C71.43 3.06 70.38 2.69 69.13 2.69C67.78 2.69 66.67 3.16 65.81 4.09C64.94 5.03 64.51 6.23 64.51 7.70C64.51 9.17 64.94 10.37 65.81 11.30C66.67 12.24 67.78 12.71 69.13 12.71C70.38 12.71 71.43 12.34 72.28 11.59L72.28 11.03C71.41 11.87 70.36 12.29 69.13 12.29C67.88 12.29 66.88 11.87 66.11 11.03C65.35 10.18 64.97 9.07 64.97 7.70ZM81.52 7.70C81.52 6.38 81.93 5.29 82.74 4.41C83.55 3.53 84.58 3.09 85.82 3.09C87.06 3.09 88.09 3.53 88.90 4.41C89.71 5.29 90.12 6.38 90.12 7.70C90.12 9.02 89.71 10.11 88.90 10.99C88.09 11.87 87.06 12.31 85.82 12.31C84.58 12.31 83.55 11.87 82.74 10.99C81.93 10.11 81.52 9.02 81.52 7.70ZM81.10 7.70C81.10 9.16 81.55 10.36 82.44 11.30C83.33 12.24 84.46 12.71 85.82 12.71C87.18 12.71 88.31 12.24 89.20 11.30C90.09 10.36 90.54 9.16 90.54 7.70C90.54 6.24 90.09 5.04 89.20 4.10C88.31 3.16 87.18 2.69 85.82 2.69C84.46 2.69 83.33 3.16 82.44 4.10C81.55 5.04 81.10 6.24 81.10 7.70ZM99.43 2.80L99.43 12.60L99.85 12.60L99.85 2.80ZM116.23 2.80L116.23 11.79L108.74 2.45L108.74 12.60L109.16 12.60L109.16 3.61L116.65 12.95L116.65 2.80ZM136.81 2.80L136.81 12.60L138.91 12.60C141.04 12.60 142.10 11.69 142.10 9.87C142.10 9.19 141.86 8.62 141.39 8.17C140.92 7.72 140.35 7.41 139.69 7.25C140.92 7.02 141.54 6.30 141.54 5.11C141.54 4.40 141.29 3.84 140.78 3.42C140.27 3.01 139.55 2.80 138.63 2.80ZM137.23 7.08L137.23 3.21L138.63 3.21C139.40 3.21 140.01 3.37 140.46 3.71C140.90 4.05 141.12 4.51 141.12 5.11C141.12 5.60 140.98 5.99 140.71 6.31C140.44 6.62 140.13 6.83 139.78 6.93C139.43 7.03 139.05 7.08 138.63 7.08ZM137.23 7.48L138.91 7.48C139.31 7.48 139.71 7.56 140.11 7.72C140.51 7.88 140.87 8.16 141.18 8.54C141.48 8.92 141.64 9.37 141.64 9.87C141.64 11.42 140.73 12.19 138.91 12.19L137.23 12.19ZM151.20 2.80L151.20 12.60L155.68 12.60L155.68 12.19L151.62 12.19L151.62 2.80ZM163.52 7.70C163.52 6.38 163.93 5.29 164.74 4.41C165.55 3.53 166.58 3.09 167.82 3.09C169.06 3.09 170.09 3.53 170.90 4.41C171.71 5.29 172.12 6.38 172.12 7.70C172.12 9.02 171.71 10.11 170.90 10.99C170.09 11.87 169.06 12.31 167.82 12.31C166.58 12.31 165.55 11.87 164.74 10.99C163.93 10.11 163.52 9.02 163.52 7.70ZM163.10 7.70C163.10 9.16 163.55 10.36 164.44 11.30C165.33 12.24 166.46 12.71 167.82 12.71C169.18 12.71 170.31 12.24 171.20 11.30C172.09 10.36 172.54 9.16 172.54 7.70C172.54 6.24 172.09 5.04 171.20 4.10C170.31 3.16 169.18 2.69 167.82 2.69C166.46 2.69 165.33 3.16 164.44 4.10C163.55 5.04 163.10 6.24 163.10 7.70ZM181.40 7.70C181.40 6.33 181.78 5.22 182.54 4.38C183.30 3.53 184.31 3.11 185.56 3.11C186.75 3.11 187.80 3.54 188.71 4.41L188.71 3.81C187.86 3.06 186.81 2.69 185.56 2.69C184.20 2.69 183.09 3.16 182.23 4.09C181.37 5.03 180.94 6.23 180.94 7.70C180.94 9.17 181.37 10.37 182.23 11.30C183.09 12.24 184.20 12.71 185.56 12.71C186.81 12.71 187.86 12.34 188.71 11.59L188.71 11.03C187.84 11.87 186.79 12.29 185.56 12.29C184.31 12.29 183.30 11.87 182.54 11.03C181.78 10.18 181.40 9.07 181.40 7.70ZM198.02 2.80L198.02 12.60L198.44 12.60L198.44 7.56L202.87 12.60L203.46 12.60L198.87 7.39L203.25 2.80L202.68 2.80L198.44 7.24L198.44 2.80ZM210.99 7.70C210.99 6.33 211.37 5.22 212.14 4.38C212.90 3.53 213.90 3.11 215.15 3.11C216.35 3.11 217.40 3.54 218.30 4.41L218.30 3.81C217.45 3.06 216.40 2.69 215.15 2.69C213.80 2.69 212.69 3.16 211.83 4.09C210.96 5.03 210.53 6.23 210.53 7.70C210.53 9.17 210.96 10.37 211.83 11.30C212.69 12.24 213.80 12.71 215.15 12.71C216.40 12.71 217.45 12.34 218.30 11.59L218.30 11.03C217.43 11.87 216.38 12.29 215.15 12.29C213.90 12.29 212.90 11.87 212.14 11.03C211.37 10.18 210.99 9.07 210.99 7.70ZM227.68 2.80L227.68 12.60L228.10 12.60L228.10 7.62L234.33 7.62L234.33 12.60L234.75 12.60L234.75 2.80L234.33 2.80L234.33 7.18L228.10 7.18L228.10 2.80ZM247.49 2.45L243.22 12.60L243.71 12.60L244.99 9.52L250.00 9.52L251.27 12.60L251.76 12.60ZM247.49 3.50L249.80 9.07L245.18 9.07ZM260.16 2.80L260.16 12.60L260.58 12.60L260.58 2.80ZM276.96 2.80L276.96 11.79L269.47 2.45L269.47 12.60L269.89 12.60L269.89 3.61L277.38 12.95L277.38 2.80ZM297.96 2.80ZM297.54 2.80L297.54 12.60L297.96 12.60L297.96 8.48L299.52 8.48L302.64 12.60L303.18 12.60L299.99 8.47C300.89 8.41 301.60 8.15 302.14 7.67C302.68 7.20 302.95 6.52 302.95 5.64C302.95 4.71 302.64 4.00 302.04 3.52C301.43 3.04 300.63 2.80 299.64 2.80ZM297.96 3.21L299.64 3.21C300.51 3.21 301.21 3.41 301.73 3.83C302.25 4.24 302.51 4.85 302.51 5.64C302.51 6.44 302.25 7.04 301.73 7.45C301.21 7.87 300.51 8.08 299.64 8.08L297.96 8.08ZM313.99 7.62C314.00 7.63 314.02 7.64 314.03 7.66C314.05 7.69 314.07 7.70 314.08 7.71L317.23 10.98C316.26 11.85 315.29 12.29 314.31 12.29C313.48 12.29 312.83 12.07 312.35 11.64C311.87 11.21 311.63 10.64 311.63 9.94C311.63 9.65 311.69 9.38 311.83 9.13C311.96 8.89 312.16 8.67 312.42 8.48C312.67 8.29 312.92 8.13 313.15 8.01C313.39 7.89 313.67 7.76 313.99 7.62ZM314.10 7.13C313.76 6.70 313.53 6.41 313.43 6.26C313.32 6.12 313.21 5.91 313.09 5.64C312.97 5.37 312.91 5.10 312.91 4.82C312.91 4.29 313.10 3.88 313.46 3.57C313.82 3.26 314.29 3.11 314.86 3.11C315.41 3.11 315.85 3.26 316.18 3.56C316.50 3.85 316.67 4.24 316.67 4.70C316.67 5.02 316.59 5.31 316.44 5.57C316.29 5.83 316.07 6.06 315.78 6.26C315.49 6.45 315.23 6.61 314.99 6.73C314.74 6.86 314.45 6.99 314.10 7.13ZM314.41 7.45C314.46 7.43 314.52 7.40 314.60 7.36C314.68 7.33 314.72 7.31 314.73 7.31C316.28 6.62 317.06 5.75 317.06 4.70C317.06 4.13 316.87 3.65 316.48 3.26C316.10 2.87 315.56 2.67 314.86 2.67C314.18 2.67 313.62 2.87 313.18 3.26C312.74 3.65 312.52 4.17 312.52 4.82C312.52 5.17 312.59 5.51 312.73 5.83C312.86 6.15 312.99 6.40 313.11 6.56C313.23 6.72 313.43 6.96 313.71 7.28C313.38 7.42 313.09 7.56 312.84 7.69C312.60 7.82 312.34 7.99 312.05 8.20C311.77 8.42 311.55 8.67 311.40 8.97C311.24 9.26 311.16 9.59 311.16 9.94C311.16 10.81 311.46 11.49 312.05 11.98C312.65 12.47 313.40 12.71 314.31 12.71C315.47 12.71 316.55 12.25 317.55 11.31L318.79 12.60L319.35 12.60L317.84 11.03C318.36 10.50 318.93 9.72 319.58 8.68L319.21 8.46C318.66 9.36 318.10 10.11 317.52 10.70ZM328.03 2.80L328.03 12.60L330.41 12.60C331.83 12.60 332.97 12.15 333.82 11.25C334.68 10.35 335.10 9.17 335.10 7.70C335.10 6.23 334.68 5.05 333.82 4.15C332.97 3.25 331.83 2.80 330.41 2.80ZM328.45 3.22L330.41 3.22C331.71 3.22 332.74 3.63 333.51 4.46C334.27 5.28 334.66 6.37 334.66 7.70C334.66 9.09 334.28 10.18 333.52 10.98C332.77 11.78 331.73 12.18 330.41 12.18L328.45 12.18ZM355.17 7.70C355.17 6.33 355.55 5.22 356.31 4.38C357.07 3.53 358.07 3.11 359.32 3.11C360.52 3.11 361.57 3.54 362.47 4.41L362.47 3.81C361.62 3.06 360.57 2.69 359.32 2.69C357.97 2.69 356.86 3.16 356.00 4.09C355.14 5.03 354.70 6.23 354.70 7.70C354.70 9.17 355.14 10.37 356.00 11.30C356.86 12.24 357.97 12.71 359.32 12.71C360.57 12.71 361.62 12.34 362.47 11.59L362.47 11.03C361.61 11.87 360.56 12.29 359.32 12.29C358.07 12.29 357.07 11.87 356.31 11.03C355.55 10.18 355.17 9.07 355.17 7.70ZM371.71 7.70C371.71 6.38 372.12 5.29 372.93 4.41C373.74 3.53 374.77 3.09 376.01 3.09C377.25 3.09 378.28 3.53 379.09 4.41C379.90 5.29 380.31 6.38 380.31 7.70C380.31 9.02 379.90 10.11 379.09 10.99C378.28 11.87 377.25 12.31 376.01 12.31C374.77 12.31 373.74 11.87 372.93 10.99C372.12 10.11 371.71 9.02 371.71 7.70ZM371.29 7.70C371.29 9.16 371.74 10.36 372.63 11.30C373.52 12.24 374.65 12.71 376.01 12.71C377.37 12.71 378.50 12.24 379.39 11.30C380.28 10.36 380.73 9.16 380.73 7.70C380.73 6.24 380.28 5.04 379.39 4.10C378.50 3.16 377.37 2.69 376.01 2.69C374.65 2.69 373.52 3.16 372.63 4.10C371.74 5.04 371.29 6.24 371.29 7.70ZM397.94 3.86L398.79 12.60L399.21 12.60L398.16 2.45L394.24 10.70L390.32 2.45L389.27 12.60L389.69 12.60L390.54 3.86L394.24 11.69ZM408.31 2.80L408.31 12.60L408.73 12.60L408.73 8.48L410.41 8.48C411.37 8.48 412.14 8.23 412.71 7.73C413.29 7.22 413.57 6.53 413.57 5.64C413.57 4.76 413.29 4.06 412.71 3.56C412.14 3.05 411.37 2.80 410.41 2.80ZM408.73 3.21L410.41 3.21C411.27 3.21 411.94 3.41 412.42 3.83C412.90 4.24 413.14 4.85 413.14 5.64C413.14 6.44 412.90 7.04 412.42 7.45C411.94 7.87 411.27 8.08 410.41 8.08L408.73 8.08ZM425.05 2.45L420.78 12.60L421.27 12.60L422.55 9.52L427.56 9.52L428.83 12.60L429.32 12.60ZM425.05 3.50L427.36 9.07L422.74 9.07ZM444.72 2.80L444.72 11.79L437.23 2.45L437.23 12.60L437.65 12.60L437.65 3.61L445.14 12.95L445.14 2.80ZM459.48 2.80L456.47 8.16L453.59 2.80L453.05 2.80L456.25 8.62L456.25 12.60L456.69 12.60L456.69 8.61L460.01 2.80Z"></path></g></svg>