<svg data-v-fde0c5aa="" xmlns="http://www.w3.org/2000/svg" viewBox="0 0 300 300" class="font"><!----><defs data-v-fde0c5aa=""><!----></defs><rect data-v-fde0c5aa="" fill="#0C568D" x="0" y="0" width="300px" height="300px" class="logo-background-square"></rect><defs data-v-fde0c5aa=""><!----></defs><g data-v-fde0c5aa="" id="e06ef86d-98c5-40f5-9ca5-600a9c17d004" fill="#06345E" transform="matrix(3.519436984598594,0,0,3.519436984598594,39.15533509013237,119.08174578822563)"><path d="M2.91 13.93C3.21 13.93 3.49 13.86 3.77 13.75C4.03 13.64 4.26 13.48 4.44 13.29L4.26 12.98C4.21 12.94 4.19 12.92 4.14 12.92C4.12 12.92 4.06 12.94 4.00 12.99C3.95 13.05 3.88 13.09 3.79 13.15C3.71 13.20 3.60 13.26 3.47 13.31C3.35 13.37 3.22 13.38 3.05 13.38C2.91 13.38 2.77 13.36 2.66 13.31C2.55 13.27 2.45 13.20 2.37 13.12C2.28 13.03 2.21 12.92 2.16 12.78C2.10 12.64 2.09 12.49 2.09 12.29L2.09 7.57L4.28 7.57L4.28 7.07L2.09 7.07L2.09 4.41L1.76 4.41C1.71 4.41 1.68 4.44 1.65 4.47C1.62 4.49 1.60 4.54 1.60 4.58L1.43 7.07L0.24 7.15L0.24 7.41C0.24 7.46 0.25 7.49 0.28 7.52C0.31 7.55 0.36 7.57 0.42 7.57L1.41 7.57L1.41 12.33C1.41 12.88 1.54 13.27 1.81 13.54C2.07 13.80 2.44 13.93 2.91 13.93ZM6.58 4.89C6.64 4.94 6.71 4.98 6.78 5.01C6.85 5.04 6.93 5.07 7.01 5.07C7.10 5.07 7.18 5.04 7.25 5.01C7.32 4.98 7.39 4.94 7.45 4.89C7.50 4.83 7.56 4.76 7.59 4.69C7.62 4.62 7.64 4.54 7.64 4.45C7.64 4.37 7.62 4.30 7.59 4.21C7.56 4.14 7.50 4.07 7.45 4.02C7.39 3.96 7.32 3.91 7.25 3.88C7.18 3.85 7.10 3.84 7.01 3.84C6.93 3.84 6.85 3.85 6.78 3.88C6.71 3.91 6.64 3.96 6.58 4.02C6.52 4.07 6.48 4.14 6.45 4.21C6.43 4.28 6.40 4.37 6.40 4.45C6.40 4.54 6.43 4.62 6.45 4.69C6.48 4.76 6.52 4.83 6.58 4.89ZM8.08 13.29L8.01 13.29L7.90 13.29C7.85 13.29 7.78 13.27 7.69 13.27C7.59 13.27 7.48 13.26 7.35 13.26L7.35 6.85L6.68 6.85L5.67 6.85L5.67 7.13C5.67 7.28 5.77 7.36 5.95 7.38L6.02 7.38C6.05 7.38 6.09 7.39 6.13 7.39L6.34 7.39C6.44 7.39 6.55 7.41 6.68 7.41L6.68 13.26C6.52 13.26 6.38 13.29 6.27 13.29L6.03 13.29L5.95 13.29C5.77 13.30 5.67 13.38 5.67 13.54L5.67 13.82L6.68 13.82L7.35 13.82L8.36 13.82L8.36 13.54C8.36 13.38 8.26 13.30 8.08 13.29ZM20.43 13.29L20.34 13.29L20.24 13.29C20.20 13.29 20.13 13.27 20.03 13.27C19.94 13.27 19.81 13.26 19.68 13.26L19.68 9.37C19.68 8.95 19.63 8.57 19.53 8.25C19.43 7.92 19.29 7.64 19.10 7.42C18.90 7.20 18.66 7.03 18.38 6.92C18.10 6.80 17.81 6.75 17.46 6.75C17.22 6.75 16.97 6.78 16.74 6.85C16.52 6.92 16.31 7.01 16.11 7.15C15.92 7.29 15.74 7.46 15.58 7.67C15.43 7.88 15.32 8.13 15.23 8.43C15.12 7.90 14.92 7.48 14.62 7.18C14.31 6.89 13.90 6.75 13.40 6.75C13.17 6.75 12.96 6.76 12.77 6.83C12.57 6.89 12.39 6.99 12.21 7.10C12.04 7.21 11.87 7.36 11.72 7.52C11.56 7.67 11.42 7.84 11.28 8.04L11.23 7.03C11.21 6.92 11.14 6.86 11.02 6.86L10.65 6.86L9.65 6.86L9.65 7.13C9.65 7.28 9.73 7.36 9.91 7.38L10.00 7.38C10.02 7.38 10.05 7.39 10.09 7.39L10.30 7.39C10.40 7.39 10.53 7.41 10.65 7.41L10.65 13.26C10.49 13.26 10.35 13.29 10.23 13.29L10.01 13.29L9.91 13.29C9.73 13.30 9.65 13.38 9.65 13.54L9.65 13.82L10.65 13.82L11.31 13.82L12.32 13.82L12.32 13.54C12.32 13.38 12.24 13.30 12.05 13.29L11.97 13.29L11.87 13.29C11.83 13.29 11.76 13.27 11.66 13.27C11.56 13.27 11.44 13.26 11.31 13.26L11.31 8.55C11.56 8.15 11.86 7.84 12.18 7.62C12.50 7.39 12.85 7.28 13.23 7.28C13.75 7.28 14.14 7.45 14.41 7.81C14.67 8.18 14.81 8.69 14.81 9.37L14.81 13.82L15.48 13.82L15.48 13.82L16.49 13.82L16.49 13.54C16.49 13.38 16.39 13.30 16.21 13.29L16.14 13.29L16.03 13.29C15.99 13.29 15.92 13.27 15.82 13.27C15.72 13.27 15.61 13.26 15.48 13.26L15.48 9.37C15.48 9.02 15.53 8.72 15.62 8.46C15.72 8.19 15.86 7.97 16.03 7.80C16.20 7.63 16.39 7.49 16.62 7.41C16.84 7.32 17.08 7.28 17.32 7.28C17.86 7.28 18.28 7.46 18.58 7.81C18.87 8.18 19.03 8.68 19.03 9.37L19.03 13.82L19.68 13.82L20.69 13.82L20.69 13.54C20.69 13.38 20.61 13.30 20.43 13.29ZM24.96 6.73C24.47 6.73 24.02 6.83 23.63 7.00C23.24 7.17 22.92 7.41 22.65 7.71C22.39 8.02 22.18 8.39 22.04 8.81C21.90 9.23 21.81 9.69 21.81 10.19C21.81 10.78 21.90 11.31 22.05 11.77C22.20 12.24 22.41 12.61 22.69 12.94C22.97 13.26 23.31 13.50 23.70 13.66C24.09 13.83 24.53 13.90 25.00 13.90C25.27 13.90 25.54 13.89 25.79 13.83C26.04 13.78 26.29 13.71 26.52 13.62C26.74 13.54 26.95 13.44 27.13 13.31C27.31 13.19 27.47 13.06 27.58 12.92L27.40 12.70C27.37 12.66 27.31 12.63 27.26 12.63C27.22 12.63 27.13 12.66 27.03 12.74C26.94 12.82 26.80 12.91 26.61 13.01C26.45 13.10 26.22 13.17 25.97 13.26C25.72 13.34 25.41 13.38 25.06 13.38C24.67 13.38 24.32 13.31 24.00 13.17C23.67 13.03 23.41 12.84 23.18 12.57C22.96 12.31 22.79 11.97 22.67 11.58C22.54 11.19 22.48 10.71 22.48 10.19L22.48 10.07L27.51 10.07C27.58 10.07 27.62 10.05 27.65 10.01C27.68 9.97 27.71 9.90 27.71 9.80C27.71 9.31 27.64 8.88 27.50 8.50C27.36 8.12 27.17 7.78 26.92 7.53C26.68 7.28 26.39 7.08 26.05 6.94C25.72 6.80 25.35 6.73 24.96 6.73ZM24.98 7.24C25.30 7.24 25.58 7.29 25.84 7.41C26.11 7.52 26.33 7.67 26.52 7.88C26.70 8.09 26.85 8.33 26.95 8.62C27.05 8.92 27.10 9.25 27.10 9.63L22.51 9.63C22.55 9.27 22.64 8.93 22.76 8.64C22.89 8.34 23.06 8.09 23.27 7.88C23.48 7.67 23.73 7.52 24.01 7.41C24.29 7.29 24.61 7.24 24.98 7.24ZM33.96 12.70C33.94 12.66 33.88 12.63 33.82 12.63C33.77 12.63 33.71 12.66 33.63 12.74C33.54 12.82 33.42 12.91 33.28 13.01C33.14 13.10 32.94 13.17 32.72 13.26C32.49 13.34 32.20 13.38 31.86 13.38C31.50 13.38 31.16 13.31 30.87 13.17C30.58 13.03 30.32 12.85 30.11 12.59C29.90 12.33 29.74 12.01 29.62 11.63C29.51 11.26 29.46 10.82 29.46 10.33C29.46 9.86 29.51 9.44 29.62 9.06C29.74 8.68 29.90 8.36 30.11 8.09C30.32 7.83 30.59 7.62 30.90 7.48C31.21 7.34 31.56 7.27 31.96 7.27C32.31 7.27 32.70 7.35 33.15 7.50C33.17 7.69 33.17 7.87 33.18 8.04C33.19 8.20 33.21 8.33 33.22 8.43C33.24 8.53 33.24 8.58 33.24 8.60C33.25 8.82 33.35 8.93 33.54 8.93L33.88 8.93L33.88 7.18L33.52 7.07C33.28 7.00 32.98 6.92 32.66 6.85C32.34 6.78 32.09 6.75 31.92 6.75C31.42 6.75 30.98 6.82 30.59 7.00C30.20 7.18 29.86 7.42 29.60 7.74C29.33 8.06 29.13 8.44 28.99 8.88C28.85 9.31 28.77 9.80 28.77 10.33C28.77 10.89 28.84 11.40 28.99 11.84C29.13 12.29 29.34 12.66 29.61 12.96C29.88 13.27 30.20 13.51 30.56 13.66C30.93 13.83 31.32 13.92 31.77 13.92C32.03 13.92 32.28 13.89 32.52 13.83C32.76 13.78 32.98 13.72 33.19 13.64C33.40 13.55 33.57 13.44 33.74 13.31C33.91 13.19 34.03 13.06 34.15 12.92ZM42.57 13.29L42.49 13.29L42.39 13.29C42.35 13.29 42.28 13.27 42.18 13.27C42.08 13.27 41.96 13.26 41.83 13.26L41.83 9.37C41.83 8.96 41.79 8.60 41.69 8.27C41.59 7.95 41.45 7.67 41.26 7.45C41.06 7.22 40.82 7.06 40.53 6.93C40.24 6.80 39.90 6.75 39.52 6.75C39.00 6.75 38.54 6.86 38.12 7.10C37.72 7.34 37.35 7.66 37.03 8.05L37.03 3.64L36.36 3.64L35.35 3.64L35.35 3.91C35.35 4.06 35.45 4.14 35.63 4.16L35.70 4.16C35.73 4.16 35.77 4.17 35.81 4.17L36.02 4.17C36.12 4.17 36.23 4.19 36.36 4.19L36.36 13.26C36.20 13.26 36.06 13.29 35.95 13.29L35.71 13.29L35.63 13.29C35.45 13.30 35.35 13.38 35.35 13.54L35.35 13.82L36.36 13.82L37.03 13.82L38.04 13.82L38.04 13.54C38.04 13.38 37.94 13.30 37.76 13.29L37.69 13.29L37.58 13.29C37.53 13.29 37.46 13.27 37.37 13.27C37.27 13.27 37.16 13.26 37.03 13.26L37.03 8.60C37.34 8.19 37.69 7.87 38.08 7.63C38.47 7.39 38.89 7.28 39.35 7.28C39.97 7.28 40.43 7.46 40.73 7.83C41.02 8.20 41.17 8.71 41.17 9.37L41.17 13.82L41.83 13.82L42.84 13.82L42.84 13.54C42.84 13.38 42.76 13.30 42.57 13.29ZM49.70 13.29L49.60 13.29L49.38 13.29C49.28 13.29 49.17 13.27 49.06 13.27L49.06 9.28C49.06 8.89 49.01 8.55 48.92 8.23C48.82 7.91 48.68 7.64 48.50 7.42C48.31 7.20 48.08 7.03 47.80 6.92C47.52 6.79 47.19 6.73 46.82 6.73C46.31 6.73 45.86 6.83 45.46 7.01C45.05 7.20 44.67 7.48 44.31 7.84L44.42 8.05C44.46 8.13 44.53 8.18 44.63 8.18C44.70 8.18 44.80 8.12 44.90 8.02C45.00 7.92 45.14 7.84 45.30 7.73C45.47 7.62 45.65 7.52 45.89 7.42C46.13 7.32 46.41 7.28 46.75 7.28C47.29 7.28 47.71 7.45 47.99 7.80C48.27 8.15 48.40 8.64 48.40 9.28L48.40 10.01C47.61 10.02 46.94 10.09 46.38 10.21C45.82 10.32 45.36 10.47 45.00 10.65C44.63 10.84 44.38 11.06 44.21 11.31C44.04 11.56 43.96 11.83 43.96 12.12C43.96 12.45 44.02 12.73 44.11 12.95C44.23 13.17 44.37 13.36 44.53 13.50C44.70 13.64 44.91 13.75 45.14 13.82C45.36 13.89 45.58 13.93 45.82 13.93C46.10 13.93 46.37 13.90 46.61 13.85C46.84 13.79 47.05 13.71 47.26 13.61C47.47 13.51 47.67 13.38 47.87 13.23C48.05 13.08 48.23 12.91 48.43 12.73L48.52 13.62C48.55 13.75 48.65 13.82 48.79 13.82L48.80 13.82L49.06 13.82L49.98 13.82L49.98 13.54C49.98 13.38 49.88 13.30 49.70 13.29ZM48.40 12.26C48.23 12.43 48.08 12.60 47.91 12.74C47.74 12.88 47.56 13.01 47.36 13.12C47.17 13.23 46.96 13.30 46.73 13.36C46.51 13.41 46.26 13.44 45.99 13.44C45.81 13.44 45.63 13.43 45.46 13.37C45.29 13.31 45.15 13.24 45.02 13.13C44.90 13.02 44.79 12.88 44.72 12.71C44.63 12.54 44.60 12.35 44.60 12.11C44.60 11.86 44.67 11.63 44.83 11.44C44.98 11.24 45.21 11.09 45.51 10.95C45.82 10.81 46.21 10.70 46.69 10.61C47.17 10.53 47.74 10.47 48.40 10.46ZM52.19 4.89C52.25 4.94 52.32 4.98 52.39 5.01C52.46 5.04 52.54 5.07 52.63 5.07C52.71 5.07 52.79 5.04 52.86 5.01C52.93 4.98 53.00 4.94 53.06 4.89C53.12 4.83 53.17 4.76 53.20 4.69C53.23 4.62 53.26 4.54 53.26 4.45C53.26 4.37 53.23 4.30 53.20 4.21C53.17 4.14 53.12 4.07 53.06 4.02C53.00 3.96 52.93 3.91 52.86 3.88C52.79 3.85 52.71 3.84 52.63 3.84C52.54 3.84 52.46 3.85 52.39 3.88C52.32 3.91 52.25 3.96 52.19 4.02C52.14 4.07 52.09 4.14 52.07 4.21C52.04 4.28 52.01 4.37 52.01 4.45C52.01 4.54 52.04 4.62 52.07 4.69C52.09 4.76 52.14 4.83 52.19 4.89ZM53.69 13.29L53.62 13.29L53.51 13.29C53.47 13.29 53.40 13.27 53.30 13.27C53.20 13.27 53.09 13.26 52.96 13.26L52.96 6.85L52.29 6.85L51.28 6.85L51.28 7.13C51.28 7.28 51.38 7.36 51.56 7.38L51.63 7.38C51.66 7.38 51.70 7.39 51.74 7.39L51.95 7.39C52.05 7.39 52.16 7.41 52.29 7.41L52.29 13.26C52.14 13.26 52.00 13.29 51.88 13.29L51.65 13.29L51.56 13.29C51.38 13.30 51.28 13.38 51.28 13.54L51.28 13.82L52.29 13.82L52.96 13.82L53.97 13.82L53.97 13.54C53.97 13.38 53.87 13.30 53.69 13.29ZM62.47 13.29L62.40 13.29L62.29 13.29C62.24 13.29 62.17 13.27 62.08 13.27C61.98 13.27 61.87 13.26 61.74 13.26L61.74 9.37C61.74 8.96 61.68 8.60 61.59 8.27C61.49 7.95 61.35 7.67 61.15 7.45C60.96 7.22 60.72 7.06 60.42 6.93C60.13 6.80 59.79 6.75 59.42 6.75C58.90 6.75 58.42 6.87 58.00 7.11C57.58 7.36 57.22 7.67 56.90 8.08L56.84 7.03C56.83 6.92 56.76 6.86 56.63 6.86L56.27 6.86L55.26 6.86L55.26 7.13C55.26 7.28 55.34 7.36 55.52 7.38L55.61 7.38C55.64 7.38 55.66 7.39 55.71 7.39L55.92 7.39C56.01 7.39 56.14 7.41 56.27 7.41L56.27 13.26C56.10 13.26 55.96 13.29 55.85 13.29L55.62 13.29L55.52 13.29C55.34 13.30 55.26 13.38 55.26 13.54L55.26 13.82L56.27 13.82L56.92 13.82L57.93 13.82L57.93 13.54C57.93 13.38 57.85 13.30 57.67 13.29L57.58 13.29L57.48 13.29C57.44 13.29 57.37 13.27 57.27 13.27C57.18 13.27 57.05 13.26 56.92 13.26L56.92 8.60C57.23 8.19 57.58 7.87 57.97 7.63C58.37 7.39 58.79 7.28 59.25 7.28C59.86 7.28 60.33 7.46 60.62 7.83C60.91 8.20 61.07 8.71 61.07 9.37L61.07 13.82L61.74 13.82L62.75 13.82L62.75 13.54C62.75 13.38 62.65 13.30 62.47 13.29Z"></path></g><!----><!----></svg>